<?xml version="1.0" encoding="utf-8"?>
<!-- Generator: Adobe Illustrator 23.0.3, SVG Export Plug-In . SVG Version: 6.00 Build 0)  -->
<svg version="1.1" id="Layer_1" xmlns="http://www.w3.org/2000/svg" xmlns:xlink="http://www.w3.org/1999/xlink" x="0px" y="0px"
	 viewBox="0 0 13 12.7" style="enable-background:new 0 0 13 12.7;" xml:space="preserve">
<path d="M6.5,0C2.9,0,0,2.9,0,6.5c0,2.9,1.9,5.3,4.4,6.2C4.8,12.7,5,12.4,5,12.1c0-0.2,0-0.3,0-0.9c-1.8,0.4-2.4-0.9-2.4-0.9
	C2.3,9.6,2,9.4,2,9.4C1.4,9,2,9,2,9c0.7,0,1,0.6,1,0.6c0.5,0.9,1.6,0.8,2,0.6c0-0.4,0-0.7,0.2-0.9C3.1,9,2,7.8,2,6.2
	c0-1,0.3-1.7,0.9-2.3C2.6,3.6,2.5,2.6,3,2c1.2,0,1.9,0.9,1.9,0.9s0.6-0.2,1.6-0.2s1.6,0.2,1.6,0.2S8.8,2,10,2
	c0.5,0.6,0.3,1.6,0.1,1.9C10.7,4.5,11,5.2,11,6.2C11,7.8,9.9,9,7.9,9.4C8,9.6,8,9.8,8,10.2c0,0.9,0,1.7,0,1.9c0,0.2,0.2,0.6,0.6,0.5
	c2.6-0.9,4.4-3.3,4.4-6.2C13,2.9,10.1,0,6.5,0z"/>
</svg>
