<?xml version="1.0" encoding="utf-8"?>
<!-- Generator: Adobe Illustrator 23.0.3, SVG Export Plug-In . SVG Version: 6.00 Build 0)  -->
<svg version="1.1" id="Layer_1" xmlns="http://www.w3.org/2000/svg" xmlns:xlink="http://www.w3.org/1999/xlink" x="0px" y="0px"
	 viewBox="0 0 2115.2 2158.4" style="enable-background:new 0 0 2115.2 2158.4;" xml:space="preserve">
<style type="text/css">
	.st0{fill:#4285F4;}
	.st1{fill:#34A853;}
	.st2{fill:#FBBC05;}
	.st3{fill:#EB4335;}
</style>
<g>
	<path class="st0" d="M2115.2,1103.2c0-88.7-7.2-153.5-22.8-220.6H1079.2V1283h594.7c-12,99.5-76.7,249.4-220.6,350.1l-2,13.4
		l320.4,248.2l22.2,2.2C1997.7,1708.7,2115.2,1431.7,2115.2,1103.2"/>
	<path class="st1" d="M1079.2,2158.4c291.4,0,536-95.9,714.7-261.4l-340.5-263.8c-91.1,63.6-213.4,107.9-374.1,107.9
		c-285.4,0-527.6-188.2-613.9-448.5l-12.7,1.1l-333.1,257.8l-4.4,12.1C292.6,1916.1,657.1,2158.4,1079.2,2158.4"/>
	<path class="st2" d="M465.2,1292.6c-22.8-67.1-36-139.1-36-213.4c0-74.3,13.2-146.3,34.8-213.4l-0.6-14.3L126.1,589.5l-11,5.2
		C42,741,0,905.3,0,1079.2s42,338.1,115.1,484.4L465.2,1292.6"/>
	<path class="st3" d="M1079.2,417.3c202.6,0,339.3,87.5,417.3,160.7L1801,280.6C1614,106.7,1370.5,0,1079.2,0
		C657.1,0,292.6,242.2,115.1,594.7l348.9,271C551.6,605.5,793.8,417.3,1079.2,417.3"/>
</g>
</svg>
